<?xml version="1.0" standalone="no"?>
<!DOCTYPE svg PUBLIC "-//W3C//DTD SVG 20010904//EN"
 "http://www.w3.org/TR/2001/REC-SVG-20010904/DTD/svg10.dtd">
<svg version="1.0" xmlns="http://www.w3.org/2000/svg"
 width="640.000000pt" height="640.000000pt" viewBox="0 0 640.000000 640.000000"
 preserveAspectRatio="xMidYMid meet">
<metadata>
Created by potrace 1.14, written by Peter Selinger 2001-2017
</metadata>
<g transform="translate(0.000000,640.000000) scale(0.100000,-0.100000)"
fill="#000000" stroke="none">
<path d="M0 3200 l0 -3200 3200 0 3200 0 0 3200 0 3200 -3200 0 -3200 0 0
-3200z m3824 2520 c786 -117 1231 -512 1327 -1180 19 -126 16 -433 -5 -560
-48 -295 -155 -582 -322 -861 -86 -143 -153 -294 -229 -519 -34 -102 -74 -208
-88 -235 -39 -76 -107 -156 -178 -210 -102 -77 -186 -105 -314 -105 -144 0
-235 37 -319 130 -70 78 -137 254 -153 403 l-6 57 -47 0 c-55 0 -83 24 -83 70
0 16 8 39 18 50 17 18 30 20 165 20 168 0 190 -8 192 -68 2 -49 -25 -72 -84
-72 -46 0 -48 -1 -48 -27 0 -16 9 -65 20 -111 58 -242 207 -357 420 -323 124
20 170 40 231 101 71 70 120 170 200 408 49 144 87 230 212 476 123 241 163
330 200 446 94 289 120 436 120 680 1 250 -31 401 -125 585 -116 227 -385 472
-663 601 -245 113 -752 185 -1104 155 -416 -35 -659 -134 -862 -348 -182 -194
-275 -472 -300 -902 -11 -203 -23 -301 -49 -411 -57 -235 -129 -394 -290 -635
-65 -96 -82 -133 -75 -155 6 -18 117 -80 143 -80 6 0 25 -12 42 -27 36 -29 36
-42 9 -165 l-13 -57 53 -56 c41 -43 52 -61 48 -78 -3 -12 -11 -43 -18 -69 -12
-46 -12 -47 34 -118 61 -96 73 -153 57 -274 -25 -181 -25 -209 4 -243 58 -69
169 -83 399 -54 189 25 273 26 375 5 228 -47 396 -210 511 -499 61 -153 126
-424 156 -647 l6 -48 -59 0 -59 0 -12 103 c-48 393 -184 727 -355 869 -33 28
-94 67 -134 86 -65 31 -86 36 -171 40 -67 3 -129 -1 -201 -14 -141 -24 -326
-25 -402 -1 -118 36 -188 120 -188 226 0 30 10 100 22 157 20 99 21 104 4 148
-10 26 -37 72 -60 104 -23 31 -45 65 -49 76 -4 11 2 48 15 87 l22 69 -41 43
c-51 52 -58 78 -38 142 23 76 20 94 -18 109 -17 7 -64 21 -104 31 -168 40
-165 99 15 355 143 202 226 400 273 643 5 29 16 168 24 310 8 142 22 302 31
355 55 322 196 592 394 756 210 173 389 231 865 280 106 11 525 -4 659 -24z
m-52 -535 c312 -80 545 -366 565 -695 15 -242 -74 -436 -321 -698 -64 -68
-124 -137 -133 -155 -21 -38 -22 -138 -3 -270 9 -65 17 -90 29 -94 52 -19 69
-85 31 -123 -19 -19 -33 -20 -349 -20 -330 0 -330 0 -345 22 -35 50 -13 108
45 121 28 7 28 6 55 240 11 90 -7 126 -133 260 -63 67 -137 151 -164 187 -149
198 -207 420 -165 630 32 157 91 271 196 380 188 195 451 276 692 215z m163
-2100 c27 -26 30 -41 15 -79 -16 -43 -57 -48 -383 -44 l-299 3 -19 24 c-26 32
-24 67 6 96 l24 25 316 0 316 0 24 -25z m-23 -162 c24 -22 24 -77 -2 -103 -19
-19 -33 -20 -311 -20 -185 0 -297 4 -310 11 -40 21 -44 97 -6 121 7 4 147 8
311 8 265 0 302 -2 318 -17z"/>
</g>
</svg>
